<?xml version="1.0" encoding="UTF-8"?>
<svg width="1055px" height="374px" viewBox="0 0 1055 374" version="1.1" xmlns="http://www.w3.org/2000/svg" xmlns:xlink="http://www.w3.org/1999/xlink">
    <!-- Generator: Sketch 42 (36781) - http://www.bohemiancoding.com/sketch -->
    <title>Slice 1</title>
    <desc>Created with Sketch.</desc>
    <defs></defs>
    <g id="Page-1" stroke="none" stroke-width="1" fill="none" fill-rule="evenodd">
        <g id="logo" fill-rule="nonzero" fill="#FFFFFF">
            <path d="M18.1883208,195.017559 C22.555637,199.038731 25.7591048,204.560156 27.3572349,210.820896 C28.8207927,217.585547 28.3260682,224.733781 25.9517809,231.128183 C21.118987,226.986716 17.6911396,220.951089 16.280919,214.100088 C15.2523741,207.710473 15.9184631,201.101799 18.1883208,195.175593 L18.1883208,195.017559 Z M17.0840356,190 C13.4911358,197.573704 12.2150222,206.376414 13.4700111,214.929763 C16.0801399,227.295874 24.2116951,235 26.5206552,235 L26.7548975,235 C29.0303944,234.249342 32.7113453,222.159789 30.1012165,210.070237 C27.8238159,201.803191 23.2030617,194.715231 17.0171092,190 L17.0840356,190 Z" id="Shape"></path>
            <path d="M47.238599,227.217033 C49.2808085,233.290162 49.7279783,239.979828 48.519057,246.372703 C46.9631401,253.128572 43.5883023,259.058672 38.9320386,263.218542 C36.5609783,256.732498 36.1653838,249.436017 37.8157419,242.629183 C39.5939543,236.428709 42.907874,231.045929 47.3042635,227.217033 L47.238599,227.217033 Z M48.519057,222.039825 C42.3164863,226.518994 37.574568,233.452123 35.0906647,241.673391 C32.1357618,254.058866 35.9114711,265.568198 37.8485741,266.962062 C38.010087,267.012646 38.1795451,267.012646 38.341058,266.962062 L38.9320386,266.962062 C41.9197737,265.966445 48.781715,258.120983 51.3097986,247.288671 C52.8152351,238.72523 51.8412304,229.794088 48.5518892,222 L48.519057,222.039825 Z" id="Shape"></path>
            <path d="M3.29919253,240.583386 C15.4824518,242.000639 25.0151168,252.178444 26.0809852,264.906978 C19.9189077,264.240894 14.1838391,261.316325 9.89757759,256.654331 C6.15615271,252.148129 3.83976634,246.548545 3.26446419,240.619582 L3.29919253,240.583386 Z M7.40279143e-14,237 C0.103480277,244.946611 2.82556248,252.614466 7.70969202,258.717493 C12.5768062,264.067627 19.1689807,267.354751 26.2198985,267.947427 C26.7386529,268.017524 27.2639196,268.017524 27.7826739,267.947427 L28.2688707,267.730252 C30.2831146,266.463398 28.2688707,254.446386 20.5591787,246.012759 C14.8823762,240.695769 7.62273693,237.577184 0,237.180979 L7.40279143e-14,237 Z" id="Shape"></path>
            <path d="M53.034004,258.189329 C58.7725991,269.823257 57.1837479,284.912629 49.2335597,294.282272 C46.2924966,288.4294 45.1095777,281.455559 45.8965842,274.609294 C46.8696582,268.345251 49.3623641,262.610665 53.034004,258.189329 L53.034004,258.189329 Z M53.5901666,253 C48.3044095,258.348653 44.6492628,265.815371 43.239363,274.144578 C41.8798544,286.575731 46.6690322,297.109294 48.6156013,298 L48.8936826,298 L49.2644576,298 C51.7980872,297.148021 57.6995901,288.163511 58.935507,276.855422 C59.383753,268.365554 57.4851904,259.941261 53.5592687,253 L53.5901666,253 Z" id="Shape"></path>
            <path d="M14.8819046,276.161102 C20.8580179,276.127643 26.69888,277.920305 31.6067459,281.294246 C36.6433074,285.181304 40.2607682,290.587965 41.9101189,296.693678 L40.3863806,296.693678 C34.435448,296.524259 28.6929278,294.487848 23.9880547,290.878508 C19.499504,287.012422 16.3205562,281.87459 14.8819046,276.161102 L14.8819046,276.161102 Z M14.011197,273.03814 C13.0081226,272.987287 12.0030744,272.987287 11,273.03814 C12.2264827,280.88108 16.1624674,288.06097 22.1378011,293.355339 C27.3220115,297.412059 33.6731571,299.737151 40.2775422,299.99612 C41.3392856,300.022537 42.4000632,299.913961 43.4338572,299.673055 C43.8246335,299.591372 44.194785,299.432668 44.5222416,299.206406 C46.4087747,297.662873 42.7082675,286.140221 33.42072,278.996894 C27.7041085,275.060007 20.8649355,273.034968 13.9023586,273.21762 L14.011197,273.03814 Z" id="Shape"></path>
            <path d="M69.6536808,285.239726 C77.4706554,294.797193 78.7697715,309.870127 72.7584652,321.262842 C68.758541,316.443088 66.2805691,310.006244 65.7727001,303.116438 C65.5465938,296.778845 66.9019068,290.509045 69.6536808,285.162671 L69.6536808,285.239726 Z M69.2190109,280 C65.0303541,286.713096 62.8370293,295.014299 63.0094419,303.501712 C64.002973,315.907534 70.6782596,324.691781 72.7584652,325 L73.0689437,325 C75.3043885,324.229452 79.806326,313.441781 78.8748907,301.536815 C77.7423036,293.196018 74.333116,285.592046 69.2190109,280 Z" id="Shape"></path>
            <path d="M40.2409659,309.916337 C43.9933874,309.863112 47.7164024,310.47256 51.1617625,311.704045 C57.6049369,314.072189 62.9112989,318.149133 66.2428626,323.291043 L65.1227808,323.588994 C62.9393449,324.045293 60.6941786,324.267815 58.4422935,324.251108 C54.0054204,324.256386 49.6168015,323.489391 45.5613539,321.99992 C39.7194887,319.487673 34.9560051,315.545499 31.9203589,310.710874 C34.6674873,310.216315 37.4696282,309.961114 40.2809688,309.949443 L40.2409659,309.916337 Z M40.2809688,307.102352 C36.468991,307.126519 32.6769678,307.560527 29.0001459,308.393475 C27.7200525,308.691426 27,308.89006 27,308.89006 C30.390528,315.551896 36.4318455,321.053888 44.1212489,324.482848 C48.6272584,326.14758 53.5076768,327.005011 58.4422935,326.998882 C61.0050077,327.01917 63.5600052,326.763208 66.042848,326.237451 C67.4260579,326.036449 68.7142836,325.520588 69.7631193,324.747694 C71.403239,322.959986 64.4027283,313.425542 52.6018675,309.022483 C48.7134305,307.63649 44.5142115,306.94822 40.2809688,307.003035 L40.2809688,307.102352 Z" id="Shape"></path>
            <path d="M86.2042509,306.714829 C90.9573557,309.387322 94.9023619,313.742709 97.5006227,319.186312 C100.047455,325.169067 100.844836,331.993809 99.7662792,338.577947 C94.5159483,335.843837 90.2599519,330.961469 87.767873,324.813688 C85.6827229,319.06676 85.1366738,312.693152 86.2042509,306.562738 L86.2042509,306.714829 Z M84.2896116,302 C82.2703729,310.009963 82.631025,318.604588 85.3107525,326.334601 C89.6825123,336.790875 98.0750145,342 100.595956,342 L101.010795,342 C103.084987,341.315589 104.584788,328.692015 99.9577431,317.665399 C96.403508,310.450874 90.869592,304.917923 84.2896116,302 L84.2896116,302 Z" id="Shape"></path>
            <path d="M78.6759212,336.7393 L79.8856826,336.7393 C86.3341696,337.079051 92.4749989,339.199762 97.372233,342.77821 C94.7042879,344.541633 91.6329729,345.813793 88.354012,346.513619 C85.8931105,347.086074 83.3537351,347.379156 80.8021685,347.385214 L79.1158345,347.385214 C73.1117914,346.771732 67.4778871,344.59724 62.9856831,341.159533 C65.9339064,339.510197 69.1600745,338.250695 72.5537956,337.424125 C74.5462858,336.944982 76.6051626,336.693738 78.6759212,336.677043 L78.6759212,336.7393 Z M78.6759212,334 C76.3204241,334.015359 73.9779146,334.298018 71.7106286,334.840467 C66.7084379,336.065089 62.0462961,338.129136 58,340.910506 C63.5273849,345.890221 70.9070095,349.100283 78.8958778,350 L80.765509,350 C83.6017821,349.994905 86.4247319,349.670415 89.1605196,349.035019 C95.8691962,347.478599 100.488285,344.490272 100.964858,343.089494 C101.661387,341.066148 91.9099772,334.622568 80.0689798,334 L78.6759212,334 Z" id="Shape"></path>
            <path d="M108.578698,319.329767 C114.474193,319.954572 120.02688,322.303691 124.484023,326.058672 C129.058436,330.319202 132.02218,335.921295 132.906615,341.979122 L132.906615,341.979122 C126.486314,341.493077 120.453586,338.838476 115.880688,334.487145 C111.90203,330.255668 109.377767,324.951327 108.650995,319.295082 L108.578698,319.329767 Z M105.036148,316 C105.344013,323.624067 108.382604,330.913019 113.639483,336.63762 C118.779156,341.552021 125.595392,344.520404 132.834319,344.996723 C133.45405,345.015007 134.073659,344.95672 134.67789,344.823298 C134.894695,344.773674 135.102053,344.691748 135.292414,344.580502 C137.352877,343.297155 135.039375,331.85108 126.689079,323.977567 C120.625254,319.021924 112.963475,316.228312 105,316.06937 L105.036148,316 Z" id="Shape"></path>
            <path d="M124.058355,354.868068 C127.974141,354.75128 131.870673,355.393222 135.464191,356.747147 C131.589915,361.605788 125.849069,365.111304 119.267905,366.637038 C117.320525,367.08439 115.313382,367.306093 113.298851,367.296364 C109.118294,367.229143 104.985238,366.514629 101.094607,365.186521 C104.792613,360.810255 109.957165,357.529361 115.884173,355.791125 L115.884173,355.791125 C118.549595,355.170307 121.298463,354.859895 124.058355,354.868068 L124.058355,354.868068 Z M124.058355,352.032966 C121.003253,352.024552 117.960409,352.368212 115.009726,353.054922 L115.009726,353.054922 C107.113414,355.425024 100.400066,360.081888 96,366.241442 C101.318726,368.592149 107.178661,369.876505 113.146773,369.999601 C115.456652,370.011521 117.758067,369.756536 119.990274,369.241376 L119.990274,369.241376 C131.852343,366.406274 139,358.131732 139,356.054855 C139,354.40654 132.308576,352 124.058355,352 L124.058355,352.032966 Z" id="Shape"></path>
            <path d="M145.409728,324.856951 C149.043476,324.811364 152.648588,325.39974 155.994262,326.58441 C162.430927,328.914643 167.752194,332.971365 171.115024,338.111874 L169.881488,338.444078 C167.670097,338.906819 165.396585,339.130121 163.116937,339.108485 C158.776311,339.110658 154.481944,338.364212 150.503038,336.915941 C144.709706,334.421243 139.973378,330.501854 136.934143,325.68746 C139.740991,325.150674 142.609821,324.872177 145.489311,324.856951 L145.409728,324.856951 Z M145.489311,322 C141.697482,322.024251 137.925502,322.459762 134.268114,323.295594 C132.835621,323.627798 132,323.89356 132,323.89356 C135.392532,330.608166 141.447876,336.144443 149.150127,339.57357 C153.567626,341.182558 158.337137,342.008346 163.156728,341.998656 C165.732255,342.021017 168.300364,341.764182 170.796692,341.234588 C172.276318,341.047155 173.658783,340.504696 174.77584,339.673231 C176.367499,337.879332 169.364199,328.345089 157.546129,323.993222 C153.772083,322.657904 149.707349,321.990518 145.608686,322.03322 L145.489311,322 Z" id="Shape"></path>
            <path d="M168.305951,352.035436 L169.660727,352.035436 C168.13851,357.940974 164.474671,363.137987 159.321645,366.701024 C157.05168,368.19823 154.514131,369.284831 151.834723,369.906989 C148.925672,370.638534 145.929593,371.005402 142.921721,370.998382 L142.672157,370.998382 C144.278454,365.637621 147.563273,360.876441 152.084287,357.355975 C155.050193,355.29439 158.384954,353.768664 161.924241,352.85398 C164.013371,352.28565 166.17011,351.976167 168.341603,351.933118 L168.305951,352.035436 Z M168.341603,349 C165.928895,349.048541 163.532613,349.392397 161.211201,350.023181 C157.367994,351.019268 153.744575,352.671536 150.515599,354.900341 C144.526793,359.735525 140.460445,366.395524 139,373.760969 C140.371728,373.925698 141.753152,374.005445 143.135633,373.999712 C146.420561,374.010493 149.692786,373.609169 152.868631,372.806001 C155.903242,372.048462 158.767049,370.765348 161.318157,369.020233 C170.658983,362.505983 173.79636,352.274178 172.833756,350.159605 C172.512888,349.443378 170.872895,349 168.519863,349 L168.341603,349 Z" id="Shape"></path>
            <path d="M343.846869,195.452151 C346.129521,201.378357 346.799364,207.987031 345.765022,214.376646 C344.346853,221.227648 340.899685,227.263274 336.039651,231.404741 C333.651393,224.966369 333.177278,217.771969 334.693579,210.978929 C336.300717,204.71819 339.522241,199.196764 343.914173,195.175593 L343.846869,195.452151 Z M345.024682,190 C338.803863,194.715231 334.157064,201.803191 331.866828,210.070237 C329.309291,222.159789 333.010989,234.249342 335.232008,235 L335.46757,235 C337.789545,235 345.966933,227.295874 348.591773,214.929763 C349.755443,206.430632 348.413974,197.719744 344.78912,190.23705 L345.024682,190 Z" id="Shape"></path>
            <path d="M317.630072,227.177208 C322.026461,231.006104 325.340381,236.388885 327.118594,242.589359 C328.768952,249.396192 328.373357,256.692673 326.002297,263.178718 C321.347869,259.016688 317.97351,253.087431 316.415279,246.332879 C315.206357,239.940003 315.653527,233.250337 317.695736,227.177208 L317.630072,227.177208 Z M316.448111,222 C313.15877,229.794088 312.184765,238.72523 313.690201,247.288671 C316.251117,258.081159 323.080226,265.966445 326.067961,266.962062 L326.658942,266.962062 C326.820455,267.012646 326.989913,267.012646 327.151426,266.962062 C329.088529,265.687672 332.864238,254.098691 329.909335,241.673391 C327.415193,233.425037 322.648272,226.475199 316.415279,222 L316.448111,222 Z" id="Shape"></path>
            <path d="M361.875924,238.836757 C361.300893,244.76572 358.9856,250.365303 355.24594,254.871506 C350.935181,259.556536 345.162108,262.483035 338.966032,263.124153 C340.031397,250.395619 349.559565,240.217814 361.737076,238.800561 L361.875924,238.836757 Z M365,235.180979 C357.380859,235.577184 350.124645,238.695769 344.450521,244.012759 C336.640331,252.446386 334.731173,264.463398 336.744467,265.730252 L337.230434,265.947427 C337.748944,266.017524 338.273962,266.017524 338.792472,265.947427 C345.840063,265.354751 352.429128,262.067627 357.293945,256.717493 C362.175771,250.614466 364.896569,242.946611 365,235 L365,235.180979 Z" id="Shape"></path>
            <path d="M308.027792,258.189329 C311.699432,262.610665 314.192138,268.345251 315.165212,274.609294 C315.952218,281.455559 314.769299,288.4294 311.828236,294.282272 C307.938175,289.490273 305.43694,283.206727 304.721714,276.429432 C304.298054,270.067689 305.452721,263.69723 308.027792,258.189329 L308.027792,258.189329 Z M307.440731,253 C303.51481,259.941261 301.616247,268.365554 302.064493,276.855422 C303.30041,288.163511 309.201913,297.148021 311.735542,298 L312.106317,298 L312.384399,298 C314.330968,297.070568 319.120146,286.3821 317.760637,274.144578 C316.350737,265.815371 312.695591,258.348653 307.409833,253 L307.440731,253 Z" id="Shape"></path>
            <path d="M352.038844,276.086113 C350.614613,281.874258 347.445268,287.079208 342.964196,290.98922 C338.294204,294.62636 332.594259,296.678456 326.687446,296.84918 L325.175004,296.84918 C326.812127,290.69644 330.402768,285.248136 335.401989,281.331138 C340.273468,277.931211 346.071027,276.124741 352.002834,276.158458 L352.038844,276.086113 Z M352.867086,273.011442 C345.956129,272.827383 339.167661,274.86802 333.493432,278.835229 C324.274742,286.069748 320.60167,297.644977 322.474216,299.200398 C322.799721,299.427547 323.166949,299.587395 323.554532,299.670642 C324.580727,299.91301 325.63359,300.022417 326.687446,299.996195 C333.222519,299.787162 339.524537,297.508224 344.6927,293.485129 C350.702567,288.207252 354.699663,280.995438 356,273.083787 C355.004361,273.032606 354.006767,273.032606 353.011128,273.083787 L352.867086,273.011442 Z" id="Shape"></path>
            <path d="M298.442377,285.239726 C301.180579,290.564297 302.534774,296.804809 302.321634,303.116438 C301.800829,309.960213 299.336864,316.351134 295.370006,321.14726 C292.491602,315.39551 291.236055,308.618533 291.80109,301.883562 C292.592279,295.615279 294.922415,289.802851 298.473411,285.239726 L298.442377,285.239726 Z M298.876854,280.038527 C293.736702,285.603073 290.29578,293.194276 289.132161,301.536815 C288.170105,313.364726 292.701077,324.229452 294.935529,325 L295.245869,325 C297.325151,324.691781 303.997473,315.907534 304.990562,303.501712 C305.162898,295.014299 302.970548,286.713096 298.783752,280 L298.876854,280.038527 Z" id="Shape"></path>
            <path d="M327.598044,309.883232 C330.401222,309.894902 333.195227,310.150103 335.93438,310.644663 C332.907547,315.479287 328.157893,319.421462 322.332989,321.933709 C318.289316,323.42318 313.913439,324.190174 309.489448,324.184897 C307.244101,324.201603 305.005453,323.979081 302.828356,323.522783 L301.711527,323.224832 C305.033418,318.082922 310.324373,314.005978 316.748841,311.637834 C320.184198,310.406349 323.896404,309.7969 327.63793,309.850126 L327.598044,309.883232 Z M327.63793,307.003035 C323.416978,306.94822 319.229951,307.63649 315.352804,309.022483 C303.386771,313.425542 296.60602,322.959986 298.241377,324.747694 C299.287168,325.520588 300.571653,326.036449 301.950847,326.237451 C304.426482,326.763208 306.974061,327.01917 309.529335,326.998882 C314.449624,327.005011 319.315873,326.14758 323.8088,324.482848 C331.534286,321.055074 337.604212,315.526143 341,308.823849 C341,308.823849 340.282038,308.592109 339.005661,308.327263 C335.339515,307.494316 331.558501,307.060308 327.757591,307.036141 L327.63793,307.003035 Z" id="Shape"></path>
            <path d="M280.797495,306.676806 C281.86449,312.80722 281.318739,319.180829 279.234725,324.927757 C276.71963,331.018465 272.468841,335.843606 267.242856,338.539924 C266.157556,331.94359 266.954674,325.103993 269.507278,319.110266 C272.104124,313.666663 276.04698,309.311276 280.797495,306.638783 L280.797495,306.676806 Z M282.711091,302.038023 C276.13964,304.946264 270.6094,310.465126 267.051497,317.665399 C262.458866,328.653992 263.86217,341.315589 265.999019,342 L266.413632,342 C269.060773,342 277.321129,336.790875 281.690507,326.334601 C284.368774,318.604588 284.72923,310.009963 282.711091,302 L282.711091,302.038023 Z" id="Shape"></path>
            <path d="M288.2141,336.645914 C290.284859,336.662609 292.343736,336.913853 294.336226,337.392996 C297.729947,338.219567 300.956115,339.479069 303.904339,341.128405 C299.402211,344.571922 293.754483,346.746807 287.737528,347.354086 L286.051194,347.354086 C283.499627,347.348027 280.960252,347.054945 278.49935,346.48249 C275.220389,345.782665 272.149074,344.510505 269.481129,342.747082 C274.363697,339.163622 280.490954,337.032223 286.93102,336.677043 L288.140782,336.677043 L288.2141,336.645914 Z M288.140782,334 L286.93102,334 C275.090023,334.622568 265.338613,341.066148 266.035142,343.089494 C266.511715,344.490272 271.130804,347.478599 277.83948,349.035019 C280.575268,349.670415 283.398218,349.994905 286.234491,350 L288.104122,350 C296.09299,349.100283 303.472615,345.890221 309,340.910506 C304.953704,338.129136 300.291562,336.065089 295.289371,334.840467 C293.022085,334.298018 290.679576,334.015359 288.324079,334 L288.140782,334 Z" id="Shape"></path>
            <path d="M258.249476,319.333755 C257.524428,324.996772 255.006151,330.307466 251.036929,334.54401 C246.474877,338.900551 240.456456,341.558331 234.051382,342.044957 L234.051382,342.044957 C234.93372,335.979877 237.890435,330.371075 242.453999,326.105443 C246.915605,322.320395 252.482758,319.955297 258.393727,319.333755 L258.249476,319.333755 Z M262,316.034727 C254.055412,316.193859 246.411804,318.990816 240.362361,323.952394 C232.031869,331.835334 229.543541,343.329842 231.77943,344.58 C231.969339,344.691379 232.176206,344.773403 232.392497,344.823086 C232.995295,344.956668 233.613434,345.015025 234.231696,344.996719 C241.453454,344.519829 248.253524,341.547892 253.381007,336.627606 C258.617742,330.90529 261.648603,323.621133 261.963937,316 L262,316.034727 Z" id="Shape"></path>
            <path d="M247.903625,354.868068 C250.663518,354.859895 253.412386,355.170307 256.077807,355.791125 L256.077807,355.791125 C262.01873,357.523386 267.197386,360.804805 270.905393,365.186521 C267.015692,366.517368 262.88206,367.231981 258.701149,367.296364 C256.646744,367.304169 254.600538,367.071299 252.618037,366.604072 C246.074478,365.06515 240.374589,361.559959 236.535809,356.714181 C240.129327,355.360256 244.025859,354.718313 247.941645,354.835102 L247.903625,354.868068 Z M247.941645,352 C239.729443,352 233.114058,354.40654 233,356.054855 C233,358.263597 240.033599,366.538139 252.009726,369.241376 L252.009726,369.241376 C254.241933,369.756536 256.543348,370.011521 258.853227,369.999601 C264.821339,369.876505 270.681274,368.592149 276,366.241442 C271.599934,360.081888 264.886586,355.425024 256.990274,353.054922 L256.990274,353.054922 C254.039504,352.368595 250.996719,352.024942 247.941645,352.032966 L247.941645,352 Z" id="Shape"></path>
            <path d="M226.337949,325.023053 C229.22521,325.035849 232.102022,325.314361 234.916446,325.853562 C230.018745,334.190855 219.766615,339.380283 208.664656,339.141706 C206.389373,339.163341 204.120216,338.940039 201.91306,338.477298 L200.681887,338.145095 C204.038276,333.004585 209.349351,328.947864 215.773688,326.61763 C219.112954,325.43296 222.711161,324.844584 226.337949,324.890171 L226.337949,325.023053 Z M226.337949,322.03322 C222.247135,321.990518 218.190187,322.657904 214.423369,323.993222 C202.508789,328.345089 195.638048,337.879332 197.226659,339.673231 C198.341576,340.504696 199.721394,341.047155 201.198186,341.234588 C203.689733,341.764182 206.252923,342.021017 208.823517,341.998656 C213.633876,342.008346 218.394253,341.182558 222.80329,339.57357 C230.520541,336.156461 236.593858,330.618794 240,323.89356 C240,323.89356 239.165979,323.627798 237.73623,323.295594 C234.085847,322.459762 230.321092,322.024251 226.536525,322 L226.337949,322.03322 Z" id="Shape"></path>
            <path d="M199.515789,352.137754 C201.687282,352.180804 203.844021,352.490286 205.933151,353.058616 C209.427561,353.953569 212.724646,355.443973 215.666149,357.458293 C220.187163,360.978759 223.471982,365.739939 225.078279,371.1007 L224.828715,371.1007 C221.820843,371.10772 218.824764,370.740852 215.915713,370.009307 C213.233767,369.320669 210.707705,368.164437 208.464443,366.598706 C203.311417,363.035669 199.647578,357.838656 198.125361,351.933118 L199.480137,351.933118 L199.515789,352.137754 Z M199.480137,349 C197.127105,349 195.487112,349.443378 195.166244,350.159605 C194.20364,352.274178 197.341017,362.505983 206.681843,369.020233 C209.232951,370.765348 212.096758,372.048462 215.131369,372.806001 C218.307214,373.609169 221.579439,374.010493 224.864367,373.999712 C226.246848,374.005445 227.628272,373.925698 229,373.760969 C227.539555,366.395524 223.473207,359.735525 217.484401,354.900341 C214.255425,352.671536 210.632006,351.019268 206.788799,350.023181 C204.467387,349.392397 202.071105,349.048541 199.658397,349 L199.480137,349 Z" id="Shape"></path>
            <path d="M282.442726,154.731095 C281.231195,140.832993 292.099336,112.893139 292.099336,112.893139 L281.694428,103.735474 L286.504916,91.4175182 L269.258424,74 L98.2188295,74 L80.7941708,91.5611679 L85.4264932,103.735474 L75.0572178,112.713577 C75.0572178,112.713577 85.7471924,140.653431 84.7138282,154.551533 C83.680464,168.449635 54.0692342,212.370511 69.3915312,246.774599 C92.0186442,297.554745 183.417927,303.336642 183.417927,320 C183.417927,303.30073 274.995377,297.554745 297.444324,246.774599 C313.08732,212.550073 283.511723,168.701022 282.442726,154.731095 Z M267.833094,77.1243796 L282.941591,92.3512409 L278.843768,102.801752 L278.024203,104.848759 L279.698966,106.285255 L288.429112,113.826861 C285.899151,120.686131 278.273636,142.556788 279.378266,155.018394 C280.693396,161.554769 282.812103,167.900364 285.685351,173.908321 L288.001513,179.618394 L185.09269,179.618394 L185.09269,77.0884672 L267.833094,77.1243796 Z M87.7426543,154.982482 C88.8472851,142.628613 81.2217698,120.650219 78.6918091,113.790949 L87.5288549,106.249343 L89.2036175,104.812847 L88.3840528,102.765839 L84.2862292,92.3153285 L99.3947267,77.0884672 L182.099497,77.0884672 L182.099497,179.582482 L79.1194081,179.582482 L81.4355693,173.872409 C84.308818,167.864452 86.4275244,161.518856 87.7426543,154.982482 Z M153.094033,299.637664 C124.587434,289.510365 85.3908599,275.684088 72.1709246,245.769051 C63.1913459,225.514453 70.6386949,201.273577 77.9078777,182.742774 L182.028231,182.742774 L182.028231,312.314745 C176.611977,307.969343 166.242701,304.306277 153.094033,299.637664 Z M294.949996,245.769051 C281.551895,275.791825 242.533487,289.654015 214.026888,299.637664 C200.878219,304.306277 190.651477,307.933431 185.09269,312.278832 L185.09269,182.742774 L289.213043,182.742774 C296.482226,201.273577 303.929575,225.514453 294.949996,245.661314 L294.949996,245.769051 Z" id="Shape"></path>
            <path d="M99,167.100047 L104.53401,167.100047 L131.713706,94 L135.216244,94 L162.430964,167.100047 L168,167.100047 L168,170 L151.853299,170 L151.853299,167.170777 L159.27868,167.170777 L151.853299,147.295486 L114.936548,147.295486 L107.581218,167.170777 L115.006599,167.170777 L115.006599,170 L99,170 L99,167.100047 Z M115.98731,144.430898 L150.837563,144.430898 L135.006091,101.674267 L133.570051,97.3950675 L133.254822,97.3950675 L131.853807,101.674267 L115.98731,144.430898 Z" id="Shape"></path>
            <path d="M159,222.241099 L156.07892,222.241099 L156.07892,210.036537 C153.564381,206.818495 150.28276,204.255371 146.522298,202.572297 C142.260595,200.654815 137.614593,199.699801 132.926652,199.777629 C124.292922,199.523578 116.015536,203.15983 110.459576,209.647406 C104.44166,216.921881 101.361128,226.113289 101.804523,235.471553 L101.804523,236.497443 C101.353354,245.866621 104.405479,255.074957 110.387451,262.392341 C115.780516,268.828534 123.89512,272.469246 132.385711,272.262118 C137.177073,272.327579 141.926032,271.374162 146.305922,269.46745 C150.166022,267.84898 153.533006,265.277407 156.07892,262.00321 L156.07892,249.727897 L159,249.727897 L159,262.95835 C156.270471,266.798722 152.531951,269.842567 148.181183,271.76686 C143.269007,273.956153 137.924914,275.055337 132.529962,274.986035 C123.254405,275.264965 114.361353,271.353039 108.404001,264.373372 C101.924626,256.512133 98.6022582,246.596538 99.063756,236.497443 L99.063756,235.577679 C98.4964266,225.484063 101.730738,215.53796 108.151562,207.631 C114.27457,200.604078 123.328336,196.697372 132.746338,197.018337 C138.07176,196.908117 143.352029,197.997297 148.181183,200.202136 C152.513238,202.155708 156.244581,205.193709 159,209.010646 L159,222.241099 Z" id="Shape"></path>
            <path d="M244.554072,146.411354 L258,146.411354 L258,149.240577 L244.554072,149.240577 L244.554072,167.135412 L253.241656,167.135412 L253.241656,170 L232.982644,170 L232.982644,167.170777 L241.670227,167.170777 L241.670227,149.205212 L204,149.205212 L204,147.649139 L241.093458,94 L244.698264,94 L244.554072,146.411354 Z M208.506008,146.411354 L241.706275,146.411354 L241.706275,97.9962773 L241.381842,97.9962773 L237.236315,104.715682 L208.506008,146.411354 Z" id="Shape"></path>
            <polygon id="Shape" points="209.857143 268.290323 257.181319 268.290323 257.181319 256.501466 260 256.501466 260 271 206 271 206 268.782991 254.399725 201.604106 210.895604 201.604106 210.895604 213.463343 208.076923 213.463343 208.076923 199 258.293956 199 258.293956 200.865103"></polygon>
            <path d="M205.176212,36.3590321 C205.74979,35.7346051 206.028139,34.9180801 205.947287,34.0971147 C205.866436,33.2761493 205.433338,32.5213507 204.74753,32.0061902 L203.344567,30.9088351 L203.344567,30.9088351 L205.215184,28.8238604 L205.215184,28.8238604 C205.788761,28.1994335 206.06711,27.3829085 205.986258,26.5619431 C205.905407,25.7409777 205.472309,24.9861791 204.786501,24.4710186 L203.383539,23.3736635 C202.951425,23.0266498 202.425352,22.7987543 201.863663,22.7152504 L201.863663,2.99943725 C201.863663,1.3428938 200.432928,1.01434032e-16 198.668027,0 L174.856643,0 C173.091742,-1.01434032e-16 171.661008,1.3428938 171.661008,2.99943725 L171.661008,16.9358469 C171.027207,16.3465821 170.271103,15.8859112 169.439651,15.5824423 C167.613025,14.9782781 165.579677,15.3882542 164.178543,16.6432189 C163.045717,17.6785177 162.69161,19.2536459 163.282206,20.6302757 C163.663847,21.5190543 163.963721,22.4368681 164.178543,23.3736635 C165.27129,27.4258165 165.483353,31.6430342 164.802082,35.773776 L164.607226,36.8345526 C163.240421,41.0937836 163.146057,45.6235317 164.334428,49.9296567 C165.345037,52.209586 166.905906,54.2381002 168.894055,55.8553742 L168.894055,55.8553742 C169.224426,56.1137179 169.335286,56.544798 169.166853,56.9161508 L167.958747,63.3905459 C167.890799,63.7891481 168.010826,64.1957862 168.287624,64.5047415 C168.564421,64.8136967 168.970644,64.9944468 169.40068,65 L186.976677,65 C187.579296,64.9951235 188.118664,64.6479784 188.340668,64.1221159 L189.08112,62.4029263 C189.213434,62.0929297 189.50928,61.8707838 189.860543,61.8176702 C191.540895,61.5309797 193.074408,60.7341901 194.225314,59.549803 C196.217543,57.3452165 197.858435,54.8809794 199.09671,52.2341024 C199.394259,52.2700833 199.695498,52.2700833 199.993047,52.2341024 C200.958342,52.2406742 201.875073,51.8373394 202.487202,51.1367473 L203.929135,49.4907147 C204.492063,48.8580343 204.771481,48.0450201 204.708558,47.2228475 C204.652115,46.4035217 204.22701,45.6454125 203.539423,45.1378728 L203.539423,45.1378728 L205.137241,43.3821047 L205.137241,43.3821047 C205.710819,42.7576777 205.989168,41.9411527 205.908316,41.1201873 C205.827465,40.2992219 205.394366,39.5444233 204.708558,39.0292628 L203.539423,38.1148002 L205.059299,36.3590321 L205.176212,36.3590321 Z M200.070989,22.6055149 C199.623434,22.8069674 199.22532,23.0934493 198.901854,23.4468205 L196.251815,26.3731007 C195.669495,26.9955976 195.387393,27.8164234 195.472391,28.6409679 C195.489316,29.5108822 195.917786,30.3286146 196.641526,30.8722566 L198.044489,31.9696117 L196.251815,33.9814294 C195.688887,34.6141098 195.409469,35.4271239 195.472391,36.2492966 L195.472391,36.2492966 L195.472391,36.2492966 C195.528835,37.0686223 195.95394,37.8267316 196.641526,38.3342712 L197.77169,39.2487338 L196.329757,40.8947665 C196.058212,41.1924246 195.858762,41.5418736 195.74519,41.9189645 C195.571117,42.5352763 194.982455,42.9683328 194.303256,42.9797411 L175.129442,42.9797411 C174.311561,42.9797411 173.648537,42.3574245 173.648537,41.589758 L173.648537,8.55936972 C173.648537,7.79170325 174.311561,7.16938661 175.129442,7.16938661 L198.512143,7.16938661 C199.330023,7.16938661 199.993047,7.79170325 199.993047,8.55936972 L200.070989,22.6055149 Z M173.687508,45.1012943 L196.056959,45.1012943 C196.219181,45.3117738 196.401826,45.5076962 196.602555,45.6865504 L197.732719,46.6010129 L197.459921,46.9302195 C196.903016,47.5516775 196.623731,48.3511992 196.680498,49.1615082 L196.680498,49.3444007 C196.712906,49.6306153 196.778239,49.9126947 196.875353,50.1857062 L174.934586,50.1857062 C174.28889,50.1857062 173.765451,49.6944036 173.765451,49.0883512 L173.765451,45.1012943 L173.687508,45.1012943 Z M203.500452,25.6049522 C203.743337,25.8254772 203.880476,26.1290781 203.880476,26.4462577 C203.880476,26.7634374 203.743337,27.0670382 203.500452,27.2875633 L200.850413,30.2138436 L200.850413,30.2138436 C200.724793,30.3223382 200.579646,30.4090339 200.42173,30.4698931 L200.42173,30.4698931 L199.798191,30.4698931 C199.578688,30.4121281 199.368826,30.3259505 199.174652,30.2138436 L197.732719,29.2628025 C197.473767,29.0445321 197.307665,28.7457161 197.265065,28.4214969 C197.262162,28.1440542 197.358187,27.8736678 197.537863,27.6533483 L200.187903,24.7270681 C200.383733,24.5047845 200.662453,24.3609006 200.967326,24.3247046 L201.162182,24.3247046 C201.45377,24.3431994 201.735483,24.4313385 201.980577,24.5807541 L203.500452,25.6049522 Z M174.778701,1.90208216 L198.74597,1.90208216 C199.056043,1.90208216 199.353418,2.01769603 199.572673,2.22349003 C199.791928,2.42928403 199.915105,2.70840059 199.915105,2.99943725 L199.915105,5.23072594 L173.531624,5.23072594 L173.531624,2.99943725 C173.572836,2.38171439 174.119284,1.9008722 174.778701,1.90208216 L174.778701,1.90208216 Z M192.939265,58.525605 C192.094478,59.4085111 190.977438,60.0222429 189.74363,60.2813731 C188.668535,60.4140545 187.756632,61.0875621 187.366388,62.0371412 L186.703879,63.1344963 L172.050719,63.1344963 C171.620683,63.1289432 171.214461,62.948193 170.937663,62.6392378 C170.660866,62.3302825 170.540838,61.9236444 170.608786,61.5250422 L171.271296,57.8671919 C171.707338,56.7667955 171.400482,55.5283265 170.491873,54.7214406 L170.491873,54.7214406 C168.642902,53.2757265 167.175648,51.4478452 166.205044,49.3809792 C165.213276,45.3920852 165.361154,41.2281231 166.633727,37.3100732 L166.828583,36.2492966 C167.544523,31.8640565 167.33264,27.389371 166.205044,23.0810355 C165.937932,22.0808525 165.586071,21.1023097 165.152822,20.1547552 C164.856865,19.4873249 165.027013,18.7178532 165.581505,18.2160945 C166.384036,17.4806663 167.556534,17.2267019 168.621256,17.5576815 C170.252036,18.1786865 171.399164,19.5769968 171.622036,21.2155318 L171.622036,49.1615082 C171.622036,50.8180516 173.052771,52.1609454 174.817672,52.1609454 L194.887824,52.1609454 C195.405693,52.1668922 195.882626,52.426338 196.145563,52.8451408 C196.408501,53.2639436 196.419236,53.7812463 196.173872,54.2093416 C195.291255,55.7688409 194.204649,57.2188092 192.939265,58.525605 L192.939265,58.525605 Z M202.604115,48.6128306 L201.162182,50.2588633 C200.880383,50.5643963 200.461434,50.727111 200.032018,50.6978053 L199.486422,50.3685988 L199.291566,50.3685988 L198.940825,50.1125492 C198.681874,49.8942788 198.515772,49.5954629 198.473171,49.2712437 C198.503091,48.9995362 198.596217,48.7373107 198.74597,48.5030951 L199.447451,47.7349465 L200.070989,47.7349465 L200.616586,47.7349465 L200.616586,47.7349465 L200.889384,47.7349465 L201.08424,47.7349465 L201.08424,47.7349465 L201.512923,47.478897 L201.512923,47.478897 L201.512923,47.478897 L201.512923,47.478897 C201.771874,47.6971674 201.937976,47.9959834 201.980577,48.3202026 C202.205087,48.3088409 202.426446,48.3737683 202.604115,48.5030951 L202.604115,48.6128306 Z M203.656337,42.3579066 L201.863663,44.3697243 L201.863663,44.3697243 L201.045269,45.2841868 C200.947586,45.4227919 200.79173,45.5158837 200.616586,45.5402364 L200.616586,45.5402364 L200.616586,45.5402364 L200.42173,45.5402364 L200.42173,45.5402364 L199.798191,45.2841868 L199.447451,45.1012943 L198.044489,44.0039392 C197.785537,43.7856688 197.619435,43.4868529 197.576835,43.1626337 C197.573932,42.8851909 197.669956,42.6148045 197.849633,42.3944851 L199.720249,40.3095104 L200.538643,40.3095104 L201.006297,40.3095104 L201.006297,40.3095104 L201.201153,40.3095104 L201.201153,40.3095104 L201.201153,40.3095104 L201.201153,40.3095104 C201.382625,40.2361014 201.542913,40.1232662 201.668807,39.9803039 L201.668807,39.9803039 L201.863663,39.9803039 L203.032798,40.9679235 C203.496366,41.2200903 203.744798,41.7155965 203.656337,42.2115926 L203.656337,42.3579066 Z M203.656337,35.334834 L201.863663,37.3466517 L201.863663,37.3466517 L201.045269,38.2611142 C200.901496,38.3852422 200.744828,38.4955291 200.577614,38.5903208 L200.382759,38.5903208 L200.070989,38.5903208 L199.447451,38.4074282 L199.09671,38.2245357 L197.693748,37.1271806 C197.434796,36.9089102 197.268694,36.6100943 197.226094,36.2858751 C197.256014,36.0141676 197.34914,35.7519421 197.498892,35.5177265 L199.915105,32.8474958 C200.055896,32.8800403 200.202997,32.8800403 200.343787,32.8474958 L200.538643,32.8474958 L201.162182,32.6646033 L201.707778,32.4085537 L201.980577,32.4085537 L203.383539,33.5059088 C203.951946,33.9009513 204.073819,34.6526618 203.656337,35.18852 L203.656337,35.334834 Z" id="Shape"></path>
            <rect id="Rectangle-path" x="184" y="2" width="7" height="1.36"></rect>
            <path d="M186,45 C184.895431,45 184,45.8954305 184,47 C184,48.1045695 184.895431,49 186,49 C187.104569,49 188,48.1045695 188,47 C188,45.8954305 187.104569,45 186,45 Z" id="Shape"></path>
        </g>
        <text id="Apps4Clubz" font-family="RobotoSlab-Light, Roboto Slab" font-size="122" font-weight="300" fill="#FFFFFF">
            <tspan x="377.387695" y="170">Apps4Clubz</tspan>
        </text>
        <text id="The-preferred-soluti" font-family="RobotoSlab-Regular, Roboto Slab" font-size="40" font-weight="normal" fill="#000000">
            <tspan x="377" y="259">The preferred solution for </tspan>
            <tspan x="377" y="312">club-to-member communications.</tspan>
        </text>
    </g>
</svg>